<?xml version="1.0" encoding="utf-8"?>
<!-- Generator: Adobe Illustrator 22.1.0, SVG Export Plug-In . SVG Version: 6.00 Build 0)  -->
<svg version="1.1" id="loader-icon" xmlns="http://www.w3.org/2000/svg" xmlns:xlink="http://www.w3.org/1999/xlink" x="0px"
	 y="0px" width="600px" height="240px" viewBox="0 0 600 240" style="enable-background:new 0 0 600 240;" xml:space="preserve">
<style type="text/css">
	.st0{fill:none;stroke:#000000;stroke-miterlimit:10;}
</style>
<g>
	<g>
		<polygon class="st0" points="357.4,99.2 399.9,74.9 407.1,95.3 406,113.3 402.9,116.8 404.6,129.2 409.8,134.5 408,145.9 
			403.4,146.1 393.6,151.7 		"/>
		<line class="st0" x1="344.5" y1="95" x2="348.4" y2="79.1"/>
		<path class="st0" d="M151.6,166h9.9l-2.4,7.3h143.1l-5-9.5H309h51.4l32.3-9.2c2.9-8.7,5-30.5-1.1-47.5l-89.3-20.7h-69.8
			l-55.2,22.3l-81,10.8l-30.9,11.3l-3.2,9.7l-6,6.7l0.8,6.2h7.7l11.3,6.2h24.5L151.6,166z"/>
		<polyline class="st0" points="177.3,108.7 189.8,163.2 256.1,163.2 291.6,121.9 291.6,86.4 		"/>
		<polyline class="st0" points="302.4,86.4 302.4,114.5 373.6,114.5 370.1,102.1 		"/>
		<polyline class="st0" points="317.1,89.8 317.1,105.1 323.3,114.5 		"/>
		<polyline class="st0" points="328.7,92.5 328.7,105.1 334.9,114.5 		"/>
		<polyline class="st0" points="339.4,95 339.4,105.1 345.6,114.5 		"/>
		<line class="st0" x1="285.3" y1="82.7" x2="298" y2="82.7"/>
		<line class="st0" x1="292.6" y1="76.6" x2="292.6" y2="82.7"/>
		<line class="st0" x1="283.2" y1="75.9" x2="299.4" y2="77.3"/>
		<polygon class="st0" points="282.3,96.1 282.3,118.1 192.2,120.7 236.8,96.1 		"/>
		<polyline class="st0" points="217.5,120 239.8,106.3 263.7,106.3 270.6,118.4 		"/>
		<line class="st0" x1="184.6" y1="140.5" x2="62.2" y2="140.5"/>
		<line class="st0" x1="184.1" y1="138.5" x2="277.3" y2="138.5"/>
		<line class="st0" x1="395.3" y1="140.5" x2="275.5" y2="140.5"/>
		<line class="st0" x1="274.6" y1="126.5" x2="274.6" y2="126.5"/>
		<line class="st0" x1="253.8" y1="144.5" x2="262.1" y2="144.5"/>
		<line class="st0" x1="84.5" y1="147.6" x2="91.1" y2="147.6"/>
		<line class="st0" x1="78.1" y1="146.8" x2="78.1" y2="150.7"/>
		<g>
			<line class="st0" x1="307.9" y1="87.7" x2="365.3" y2="30.3"/>
			<path class="st0" d="M365.3,30.3l4.9-4.9c0.9-0.9,2.4-1,3.4-0.2l1.3,1c1.5,1.3,3.8,1.1,5.1-0.3l6.1-6.5c2.1-2.2,1.9-5.7-0.4-7.7
				l-1.7-1.4c-2.5-2.1-6.2-2-8.5,0.2l-0.2,0.2"/>
		</g>
	</g>
	<g>
		<g>
			<circle class="st0" cx="126.3" cy="160.7" r="25.9"/>
			<circle class="st0" cx="126.3" cy="160.5" r="16"/>
		</g>
		<g>
			<circle class="st0" cx="334.8" cy="160.7" r="25.9"/>
			<circle class="st0" cx="334.8" cy="160.5" r="16"/>
		</g>
	</g>
</g>
<g>
	<line class="st0" x1="370.7" y1="168.6" x2="587.6" y2="168.6"/>
	<line class="st0" x1="533.3" y1="151.7" x2="443.2" y2="151.7"/>
	<line class="st0" x1="450" y1="176.5" x2="359.9" y2="176.5"/>
	<line class="st0" x1="472.3" y1="138.5" x2="425" y2="138.5"/>
</g>
<g>
	<path class="st0" d="M42.7,130.4L42.7,130.4L42.7,130.4c0-40,32.4-72.4,72.4-72.4h62.4"/>
	<path class="st0" d="M42.7,130.4L42.7,130.4L42.7,130.4c0-26.6,21.6-48.2,48.2-48.2h14.6"/>
	<path class="st0" d="M42.6,130.5L42.6,130.5L42.6,130.5c0-11.1,9-20.1,20.1-20.1h92.7"/>
	<path class="st0" d="M42.6,130.4L42.6,130.4L42.6,130.4c0,11.1,9,20.1,20.1,20.1h22.7"/>
	<path class="st0" d="M42.7,130.4L42.7,130.4L42.7,130.4c0,40,32.4,72.4,72.4,72.4h82.4"/>
	<path class="st0" d="M42.7,130.4L42.7,130.4L42.7,130.4c0,26.6,21.6,48.2,48.2,48.2h94.6"/>
	<line class="st0" x1="174.5" y1="165.4" x2="297" y2="165.4"/>
	<line class="st0" x1="175.9" y1="193.8" x2="332.8" y2="193.8"/>
	<line class="st0" x1="114.7" y1="66.4" x2="292.5" y2="66.4"/>
	<line class="st0" x1="184.3" y1="119" x2="379.9" y2="119"/>
</g>
</svg>
