<?xml version="1.0" encoding="utf-8"?>
<!-- Generator: Adobe Illustrator 22.1.0, SVG Export Plug-In . SVG Version: 6.00 Build 0)  -->
<svg version="1.1" id="loader-icon" xmlns="http://www.w3.org/2000/svg" xmlns:xlink="http://www.w3.org/1999/xlink" x="0px"
	 y="0px" width="600px" height="240px" viewBox="0 0 600 240" style="enable-background:new 0 0 600 240;" xml:space="preserve">
<style type="text/css">
	.st0{fill:none;stroke:#000000;stroke-miterlimit:10;}
</style>
<g>
	<g>
		<polygon class="st0" points="330.4,99.2 372.9,74.9 380.1,95.3 379,113.3 375.9,116.8 377.6,129.2 382.8,134.5 381,145.9 
			376.4,146.1 366.6,151.7 		"/>
		<line class="st0" x1="317.5" y1="95" x2="321.4" y2="79.1"/>
		<path class="st0" d="M124.6,166h9.9l-2.4,7.3h143.1l-5-9.5H282h51.4l32.3-9.2c2.9-8.7,5-30.5-1.1-47.5l-89.3-20.7h-69.8
			l-55.2,22.3l-81,10.8l-30.9,11.3l-3.2,9.7l-6,6.7l0.8,6.2h7.7l11.3,6.2h24.5L124.6,166z"/>
		<polyline class="st0" points="150.3,108.7 162.8,163.2 229.1,163.2 264.6,121.9 264.6,86.4 		"/>
		<polyline class="st0" points="275.4,86.4 275.4,114.5 346.6,114.5 343.1,102.1 		"/>
		<polyline class="st0" points="290.1,89.8 290.1,105.1 296.3,114.5 		"/>
		<polyline class="st0" points="301.7,92.5 301.7,105.1 307.9,114.5 		"/>
		<polyline class="st0" points="312.4,95 312.4,105.1 318.6,114.5 		"/>
		<line class="st0" x1="258.3" y1="82.7" x2="271" y2="82.7"/>
		<line class="st0" x1="265.6" y1="76.6" x2="265.6" y2="82.7"/>
		<line class="st0" x1="256.2" y1="75.9" x2="272.4" y2="77.3"/>
		<polygon class="st0" points="255.3,96.1 255.3,118.1 165.2,120.7 209.8,96.1 		"/>
		<polyline class="st0" points="190.5,120 212.8,106.3 236.7,106.3 243.6,118.4 		"/>
		<line class="st0" x1="157.6" y1="140.5" x2="35.2" y2="140.5"/>
		<line class="st0" x1="157.1" y1="138.5" x2="250.3" y2="138.5"/>
		<line class="st0" x1="368.3" y1="140.5" x2="248.5" y2="140.5"/>
		<line class="st0" x1="247.6" y1="126.5" x2="247.6" y2="126.5"/>
		<line class="st0" x1="226.8" y1="144.5" x2="235.1" y2="144.5"/>
		<line class="st0" x1="57.5" y1="147.6" x2="64.1" y2="147.6"/>
		<line class="st0" x1="51.1" y1="146.8" x2="51.1" y2="150.7"/>
		<g>
			<line class="st0" x1="280.9" y1="87.7" x2="338.3" y2="30.3"/>
			<path class="st0" d="M338.3,30.3l4.9-4.9c0.9-0.9,2.4-1,3.4-0.2l1.3,1c1.5,1.3,3.8,1.1,5.1-0.3l6.1-6.5c2.1-2.2,1.9-5.7-0.4-7.7
				l-1.7-1.4c-2.5-2.1-6.2-2-8.5,0.2l-0.2,0.2"/>
		</g>
	</g>
	<g>
		<g>
			<circle class="st0" cx="99.3" cy="160.7" r="25.9"/>
			<circle class="st0" cx="99.3" cy="160.5" r="16"/>
		</g>
		<g>
			<circle class="st0" cx="307.8" cy="160.7" r="25.9"/>
			<circle class="st0" cx="307.8" cy="160.5" r="16"/>
		</g>
	</g>
</g>
<g>
	<line class="st0" x1="560.6" y1="168.6" x2="343.7" y2="168.6"/>
	<line class="st0" x1="506.3" y1="151.7" x2="416.2" y2="151.7"/>
	<line class="st0" x1="423" y1="176.5" x2="332.9" y2="176.5"/>
	<line class="st0" x1="445.3" y1="138.5" x2="398" y2="138.5"/>
</g>
<g>
	<path class="st0" d="M15.7,132.4L15.7,132.4L15.7,132.4c0,26.6,21.6,48.2,48.2,48.2h94.6"/>
	<path class="st0" d="M15.7,132.4L15.7,132.4L15.7,132.4c0,40,32.4,72.4,72.4,72.4h82.4"/>
	<path class="st0" d="M15.7,132.4L15.7,132.4L15.7,132.4c0-40,32.4-72.4,72.4-72.4h62.4"/>
	<path class="st0" d="M15.7,132.4L15.7,132.4L15.7,132.4c0-26.6,21.6-48.2,48.2-48.2h14.6"/>
	<path class="st0" d="M15.6,132.4L15.6,132.4L15.6,132.4c0,11.1,9,20.1,20.1,20.1h82.7"/>
	<path class="st0" d="M15.6,132.5L15.6,132.5L15.6,132.5c0-11.1,9-20.1,20.1-20.1h92.7"/>
	<line class="st0" x1="147.5" y1="167.4" x2="270" y2="167.4"/>
	<line class="st0" x1="148.9" y1="195.8" x2="305.8" y2="195.8"/>
	<line class="st0" x1="87.7" y1="68.4" x2="265.5" y2="68.4"/>
	<line class="st0" x1="157.3" y1="121" x2="352.9" y2="121"/>
</g>
</svg>
