<?xml version="1.0" encoding="utf-8"?>
<!-- Generator: Adobe Illustrator 22.1.0, SVG Export Plug-In . SVG Version: 6.00 Build 0)  -->
<svg version="1.1" id="loader-icon" xmlns="http://www.w3.org/2000/svg" xmlns:xlink="http://www.w3.org/1999/xlink" x="0px"
	 y="0px" width="600px" height="200px" viewBox="0 0 600 200" style="enable-background:new 0 0 600 200;" xml:space="preserve">
<style type="text/css">
	.st0{fill:none;stroke:#000000;stroke-miterlimit:10;}
	.st1{fill:none;stroke:#2200FF;stroke-miterlimit:10;stroke-dasharray:12,2,5,8;}
</style>
<g>
	<polygon class="st0" points="330.4,101.5 372.9,77.2 380.1,97.6 379,115.6 375.9,119.1 377.6,131.5 382.8,136.8 381,148.2 
		376.4,148.4 366.6,154 	"/>
	<path class="st0" d="M124.6,168.3h9.9l-2.4,7.3h143.1l-5-9.5H282h51.4l32.3-9.2c2.9-8.7,5-30.5-1.1-47.5l-89.3-20.7h-69.8
		L150.3,111l-81,10.8l-30.9,11.3l-3.2,9.7l-6,6.7l0.8,6.2h7.7l11.3,6.2h24.5L124.6,168.3z"/>
	<polyline class="st0" points="150.3,111 162.8,165.5 229.1,165.5 264.6,124.2 264.6,88.7 	"/>
	<line class="st0" x1="317.5" y1="97.3" x2="321.4" y2="81.4"/>
	<polyline class="st0" points="275.4,88.7 275.4,116.8 346.6,116.8 343.1,104.4 	"/>
	<line class="st0" x1="258.3" y1="85" x2="271" y2="85"/>
	<line class="st0" x1="265.6" y1="78.9" x2="265.6" y2="85"/>
	<line class="st0" x1="256.2" y1="78.2" x2="272.4" y2="79.6"/>
	<polygon class="st0" points="255.3,98.4 255.3,120.4 165.2,123 209.8,98.4 	"/>
	<line class="st0" x1="35.2" y1="142.8" x2="83" y2="142.8"/>
	<line class="st0" x1="115.5" y1="142.8" x2="157.6" y2="142.8"/>
	<line class="st0" x1="248.5" y1="142.8" x2="291.5" y2="142.8"/>
	<line class="st0" x1="157.1" y1="140.8" x2="250.3" y2="140.8"/>
	<line class="st0" x1="324" y1="142.8" x2="368.3" y2="142.8"/>
	<polyline class="st0" points="190.5,122.3 212.8,108.6 236.7,108.6 243.6,120.7 	"/>
	<polyline class="st0" points="290.1,92.1 290.1,107.4 296.3,116.8 	"/>
	<polyline class="st0" points="301.7,94.8 301.7,107.4 307.9,116.8 	"/>
	<polyline class="st0" points="312.4,97.3 312.4,107.4 318.6,116.8 	"/>
	<line class="st0" x1="247.6" y1="128.8" x2="247.6" y2="128.8"/>
	<line class="st0" x1="226.8" y1="146.8" x2="235.1" y2="146.8"/>
	<line class="st0" x1="57.5" y1="149.9" x2="64.1" y2="149.9"/>
	<line class="st0" x1="51.1" y1="149.1" x2="51.1" y2="153"/>
</g>
<g>
	<circle class="st0" cx="99.3" cy="163" r="25.9"/>
	<circle class="st0" cx="99.3" cy="162.8" r="16"/>
</g>
<g>
	<circle class="st0" cx="307.8" cy="163" r="25.9"/>
	<circle class="st0" cx="307.8" cy="162.8" r="16"/>
</g>
<g>
	<line class="st0" x1="280.9" y1="90" x2="338.3" y2="32.6"/>
	<path class="st0" d="M338.3,32.6l4.9-4.9c0.9-0.9,2.4-1,3.4-0.2l1.3,1c1.5,1.3,3.8,1.1,5.1-0.3l6.1-6.5c2.1-2.2,1.9-5.7-0.4-7.7
		l-1.7-1.4c-2.5-2.1-6.2-2-8.5,0.2l-0.2,0.2"/>
</g>
<g>
	<line class="st0" x1="378" y1="74.7" x2="461.4" y2="74.7"/>
	<line class="st0" x1="404.3" y1="85" x2="570.8" y2="85"/>
	<line class="st0" x1="386.6" y1="108.6" x2="503.9" y2="108.6"/>
	<line class="st0" x1="412.6" y1="94.8" x2="509.5" y2="94.8"/>
	<line class="st0" x1="393.7" y1="127.1" x2="523.6" y2="127.1"/>
	<line class="st0" x1="343.7" y1="170.9" x2="560.6" y2="170.9"/>
	<line class="st0" x1="416.2" y1="154" x2="506.3" y2="154"/>
	<line class="st0" x1="332.9" y1="178.8" x2="423" y2="178.8"/>
	<line class="st0" x1="398" y1="140.8" x2="445.3" y2="140.8"/>
</g>
<g>
	
		<image style="overflow:visible;opacity:0.75;" width="183" height="140" xlink:href="974633A57BA8193.png"  transform="matrix(1 0 0 1 116 62)">
	</image>
	<g>
		<g>
			<path class="st1" d="M126,107.1c-6.5-12.7-7.8-23.9-2.6-31.5c12.8-19,60.9-9.1,107.3,22.2s73.6,72.1,60.8,91.1
				c-9.4,13.9-37.4,12.4-69.9-1.6"/>
			<path class="st1" d="M123.4,188.8c12.8,19,60.9,9.1,107.3-22.2s73.6-72.1,60.8-91.1c-8.3-12.2-31-12.5-58.6-2.8"/>
		</g>
	</g>
</g>
</svg>
