<?xml version="1.0" encoding="utf-8"?>
<!-- Generator: Adobe Illustrator 22.1.0, SVG Export Plug-In . SVG Version: 6.00 Build 0)  -->
<svg version="1.1" id="Layer_2" xmlns="http://www.w3.org/2000/svg" xmlns:xlink="http://www.w3.org/1999/xlink" x="0px" y="0px"
	 width="548.24963px" height="182.95512px" viewBox="0 0 548.24963 182.95512"
	 style="enable-background:new 0 0 548.24963 182.95512;" xml:space="preserve">
<style type="text/css">
	.st0{fill:#CCCCCC;}
	.st1{fill:#CCCCCC;stroke:#333333;stroke-width:5;stroke-linecap:round;stroke-linejoin:round;stroke-miterlimit:10;}
	.st2{fill:#CCCCCC;stroke:#333333;stroke-width:5.5;stroke-linecap:round;stroke-linejoin:round;stroke-miterlimit:10;}
	.st3{fill:none;stroke:#333333;stroke-width:5.5;stroke-linecap:round;stroke-linejoin:round;stroke-miterlimit:10;}
	.st4{fill:none;stroke:#333333;stroke-width:7;stroke-linecap:round;stroke-linejoin:round;stroke-miterlimit:10;}
	.st5{fill:none;stroke:#333333;stroke-width:3;stroke-linecap:round;stroke-linejoin:round;stroke-miterlimit:10;}
	.st6{fill:none;stroke:#333333;stroke-width:5;stroke-linecap:round;stroke-linejoin:round;stroke-miterlimit:10;}
	.st7{fill:none;stroke:#333333;stroke-width:4;stroke-linecap:round;stroke-linejoin:round;stroke-miterlimit:10;}
</style>
<polygon class="st0" points="548.24963,173.02177 282.20001,173.02177 282.20001,86.82254 304.80002,92.1516 347.33435,67.7947 
	548.24963,67.7947 "/>
<polygon class="st1" points="304.80002,92.1516 347.33435,67.7947 354.55319,88.25917 353.39996,106.25511 350.33038,109.75511 
	352.04166,122.14678 357.29166,127.39678 355.42975,138.78178 350.85547,139.00746 341.07962,144.5645 "/>
<path class="st2" d="M99.00623,158.92958h9.88374l-2.43163,7.30054h143.08334l-4.96788-9.48021h11.9155h51.42715l32.33356-9.22813
	c2.90094-8.73349,5-30.49999-1.14999-47.49999l-89.27019-20.70824h-69.75436l-55.31596,22.34157l-81.00507,10.84801
	L12.815,123.75382l-3.1877,9.7013l-6.00037,6.7l0.75005,6.2h7.68798l11.31004,6.242h24.48823L99.00623,158.92958z"/>
<circle class="st2" cx="73.7" cy="153.59712" r="25.90852"/>
<circle class="st3" cx="73.7" cy="153.39745" r="16"/>
<circle class="st2" cx="282.20001" cy="153.59712" r="25.90852"/>
<circle class="st3" cx="282.20001" cy="153.39745" r="16"/>
<line class="st3" x1="255.35497" y1="80.59522" x2="312.74753" y2="23.20264"/>
<polyline class="st3" points="124.7595,101.65511 137.26352,156.14026 203.5,156.14026 239,114.81345 239,79.31355 "/>
<line class="st4" x1="291.94971" y1="87.90069" x2="295.875" y2="71.98011"/>
<polyline class="st3" points="249.82982,79.31355 249.82982,107.41761 321.0625,107.41761 317.57999,95.02972 "/>
<line class="st5" x1="232.7" y1="75.56352" x2="245.43283" y2="75.56352"/>
<line class="st5" x1="240.04114" y1="69.55311" x2="240.04114" y2="75.56352"/>
<line class="st5" x1="230.66939" y1="68.846" x2="246.81779" y2="70.21669"/>
<polygon class="st3" points="229.75,89.02178 229.75,111.02178 139.66667,113.60511 184.25,89.02178 "/>
<line class="st5" x1="9.6273" y1="133.45512" x2="57.4038" y2="133.45512"/>
<line class="st5" x1="89.99364" y1="133.45512" x2="132.05742" y2="133.45512"/>
<line class="st5" x1="222.98668" y1="133.45512" x2="265.90341" y2="133.45512"/>
<line class="st5" x1="131.59842" y1="131.45512" x2="224.7047" y2="131.45512"/>
<line class="st5" x1="298.49597" y1="133.45512" x2="342.75687" y2="133.45512"/>
<polyline class="st6" points="164.95427,112.87994 187.25,99.22898 211.15923,99.22898 218,111.35873 "/>
<polyline class="st7" points="264.51074,82.71912 264.51074,98.0551 270.75,107.41761 "/>
<polyline class="st7" points="276.12494,85.41329 276.12494,98.0551 282.36423,107.41761 "/>
<polyline class="st7" points="286.84775,87.90069 286.84775,98.0551 293.08704,107.41761 "/>
<path class="st5" d="M312.74753,23.20264l4.85022-4.85021c0.90848-0.90846,2.35788-0.9797,3.35104-0.16471l1.25421,1.0292
	c1.52963,1.25521,3.77014,1.11115,5.1264-0.32964l6.11789-6.49905c2.08508-2.215,1.89438-5.72354-0.41849-7.69951l-1.69354-1.44686
	c-2.48175-2.12026-6.16409-2.02345-8.53101,0.22427L322.625,3.63636"/>
<line class="st5" x1="222.00658" y1="119.41568" x2="222.00658" y2="119.41568"/>
<line class="st3" x1="201.20833" y1="137.45511" x2="209.5" y2="137.45511"/>
<line class="st3" x1="31.91235" y1="140.55511" x2="38.55688" y2="140.55511"/>
<line class="st3" x1="25.5" y1="139.71059" x2="25.5" y2="143.63466"/>
<line class="st5" x1="352.41473" y1="65.26361" x2="435.87271" y2="65.26361"/>
<line class="st6" x1="378.79059" y1="75.56352" x2="545.27142" y2="75.56352"/>
<line class="st7" x1="361.07547" y1="99.22898" x2="478.38907" y2="99.22898"/>
<line class="st6" x1="387.05768" y1="85.41329" x2="483.90042" y2="85.41329"/>
<line class="st5" x1="368.16153" y1="117.72691" x2="498.07254" y2="117.72691"/>
<line class="st7" x1="318.16547" y1="154.49001" x2="535.07751" y2="154.49001"/>
<line class="st5" x1="390.60071" y1="144.5645" x2="480.75107" y2="144.5645"/>
<line class="st5" x1="307.33954" y1="165.39745" x2="397.48993" y2="165.39745"/>
<line class="st5" x1="372.49188" y1="131.45512" x2="419.73227" y2="131.45512"/>
</svg>
